# xmcd CD database file
#
# Track frame offsets:
#	150
#	36531
#	74419
#	106791
#	143386
#	184886
#	225329
#	247597
#	276165
#	299932
#
# Disc length: 4286 seconds
#
# Revision: 0
# Processed by: cddbd v1.5.1PL2 Copyright (c) Steve Scherf et al.
# Submitted via: CDex 1.51
#
DISCID=8f10bc0a
DTITLE=Roger Kellaway - That Was That
DYEAR=1991
DGENRE=Jazz
TTITLE0=Gone With the Wind
TTITLE1=Leavin' Blues
TTITLE2=Exactly Like You
TTITLE3=Bridge Across Forever
TTITLE4=When Lights Are Low
TTITLE5=How Deep Is the Ocean?
TTITLE6=Billie's Bounce
TTITLE7=Crazy She Calls Me
TTITLE8=C Jam Blues
TTITLE9=That Was That
EXTD=YEAR: 1991
EXTT0=
EXTT1=
EXTT2=
EXTT3=
EXTT4=
EXTT5=
EXTT6=
EXTT7=
EXTT8=
EXTT9=
PLAYORDER=
